<?xml version="1.0" encoding="UTF-8" standalone="no"?>
<svg
   xmlns:dc="http://purl.org/dc/elements/1.1/"
   xmlns:cc="http://creativecommons.org/ns#"
   xmlns:rdf="http://www.w3.org/1999/02/22-rdf-syntax-ns#"
   xmlns:svg="http://www.w3.org/2000/svg"
   xmlns="http://www.w3.org/2000/svg"
   xmlns:sodipodi="http://sodipodi.sourceforge.net/DTD/sodipodi-0.dtd"
   xmlns:inkscape="http://www.inkscape.org/namespaces/inkscape"
   version="1.0"
   width="455pt"
   height="512pt"
   viewBox="0 0 455 512"
   preserveAspectRatio="xMidYMid meet"
   id="svg6"
   sodipodi:docname="typical-programmer-icon.svg"
   inkscape:version="0.92.4 (5da689c313, 2019-01-14)">
  <metadata
     id="metadata12">
    <rdf:RDF>
      <cc:Work
         rdf:about="">
        <dc:format>image/svg+xml</dc:format>
        <dc:type
           rdf:resource="http://purl.org/dc/dcmitype/StillImage" />
        <dc:title />
      </cc:Work>
    </rdf:RDF>
  </metadata>
  <defs
     id="defs10" />
  <sodipodi:namedview
     pagecolor="#ffffff"
     bordercolor="#666666"
     borderopacity="1"
     objecttolerance="10"
     gridtolerance="10"
     guidetolerance="10"
     inkscape:pageopacity="0"
     inkscape:pageshadow="2"
     inkscape:window-width="1920"
     inkscape:window-height="1016"
     id="namedview8"
     showgrid="false"
     inkscape:zoom="0.69140625"
     inkscape:cx="-212.06709"
     inkscape:cy="223.62125"
     inkscape:window-x="0"
     inkscape:window-y="27"
     inkscape:window-maximized="1"
     inkscape:current-layer="svg6" />
  <g
     transform="matrix(-0.14768619,0,0,-0.14793413,584.8882,622.92404)"
     id="g4"
     style="fill:#000000;stroke:none">
    <path
       d="m 2188,4199 c -129,-20 -300,-95 -397,-174 -75,-61 -217,-212 -236,-253 -18,-37 -21,-39 -27,-19 -3,12 -6,102 -7,200 -1,202 -4,209 -71,162 -51,-35 -176,-174 -220,-245 -31,-48 -35,-64 -38,-130 -3,-56 2,-90 17,-134 12,-33 21,-62 21,-66 0,-10 -83,-65 -92,-62 -5,1 -7,-2 -5,-6 1,-4 -15,-23 -35,-41 -53,-46 -126,-146 -155,-211 -39,-86 -65,-256 -46,-293 3,-4 29,14 59,41 29,26 72,59 95,72 l 42,23 -7,-34 c -4,-19 -9,-60 -13,-91 -3,-32 -9,-56 -12,-54 -12,8 7,-251 24,-324 36,-156 118,-294 248,-416 61,-57 66,-66 80,-130 15,-67 38,-231 54,-384 7,-60 11,-74 23,-70 8,3 58,5 110,5 92,0 98,-2 155,-35 91,-54 346,-315 327,-335 -4,-3 -2,-5 5,-3 9,2 110,-120 173,-212 8,-12 39,-54 68,-93 30,-40 60,-84 68,-100 8,-15 20,-27 28,-27 7,0 78,31 157,69 314,150 562,234 601,204 22,-18 110,-43 148,-43 20,0 90,14 156,31 65,17 129,34 141,36 40,9 44,24 32,109 -7,47 -9,136 -6,219 6,135 7,141 32,160 30,25 32,58 5,103 -11,18 -20,36 -20,41 0,4 19,12 43,17 l 42,9 3,130 c 1,71 6,132 11,135 10,7 85,67 128,104 19,16 40,41 48,56 13,25 12,30 -13,58 -15,17 -43,51 -62,76 -19,25 -50,63 -67,83 -18,21 -33,42 -33,47 0,4 -13,25 -28,45 -37,47 -114,186 -138,246 -16,43 -16,54 -4,119 8,39 16,127 20,195 5,122 5,125 30,132 14,4 78,24 142,44 65,20 120,36 124,35 34,-9 -8,140 -64,230 -18,29 -30,56 -26,61 3,5 2,8 -3,7 -4,-2 -28,19 -53,46 -49,53 -143,129 -182,146 -15,7 -25,21 -26,37 -3,32 21,159 42,228 9,28 16,56 16,63 0,27 -212,108 -375,144 -93,20 -457,17 -572,-5 -130,-25 -272,-68 -382,-115 -52,-23 -96,-40 -98,-38 -1,1 15,40 37,85 22,45 40,86 40,90 0,9 -25,9 -82,0 z m 1268,-892 c 33,-24 65,-51 72,-60 17,-20 27,-171 18,-269 l -7,-75 -112,-7 c -208,-12 -362,-36 -697,-105 -217,-45 -245,-48 -254,-25 -15,40 -4,80 51,172 58,99 143,271 143,289 0,6 6,16 14,22 11,10 27,-3 84,-69 38,-44 85,-103 103,-130 36,-52 51,-60 116,-60 h 41 l 7,51 c 4,28 5,90 2,138 l -6,86 13,-52 c 8,-28 17,-90 21,-137 l 7,-85 46,-10 c 109,-22 253,-43 260,-36 4,4 7,96 7,206 0,109 3,199 6,199 4,0 33,-19 65,-43 z M 1901,2745 c 60,-21 111,-68 157,-145 38,-64 40,-65 86,-68 46,-3 46,-3 46,-40 -1,-161 -33,-347 -96,-548 -36,-118 -26,-184 63,-392 32,-73 41,-86 76,-104 23,-11 176,-73 342,-138 165,-64 332,-132 370,-149 l 70,-32 -100,-38 c -138,-53 -213,-88 -354,-166 -67,-37 -123,-65 -125,-64 -1,2 -24,36 -51,74 -158,228 -295,397 -434,534 l -115,113 27,137 c 15,75 27,143 27,152 0,9 -28,60 -63,115 -164,260 -214,371 -236,529 -18,124 20,210 102,234 51,15 159,12 208,-4 z m 1583,-3 c 3,-5 1,-75 -4,-157 -8,-140 -10,-150 -34,-174 -14,-14 -29,-21 -33,-17 -4,4 -8,83 -8,174 v 167 l 30,6 c 17,4 33,7 37,8 4,0 9,-3 12,-7 z m -211,-229 c 6,-190 18,-307 32,-321 2,-3 26,-5 51,-4 45,0 49,3 130,87 l 84,86 v 60 c 0,32 3,59 8,59 4,0 36,-51 72,-112 36,-61 89,-145 119,-187 l 53,-75 -43,-38 c -54,-46 -75,-52 -269,-73 -190,-20 -254,-41 -465,-147 l -160,-80 -41,45 c -49,54 -192,243 -267,353 -59,88 -52,56 -76,351 l -6,82 45,10 c 62,13 673,108 711,110 14,1 17,-25 22,-206 z m 359,-879 c 27,-55 27,-55 -90,-79 -130,-27 -126,-24 -146,-99 -10,-36 -23,-66 -29,-66 -15,0 -187,103 -187,112 0,20 362,178 408,178 17,0 28,-11 44,-46 z"
       id="path2"
       inkscape:connector-curvature="0"
       style="fill:#000000;fill-opacity:0.5411765" />
  </g>
</svg>
